<svg width="100" height="100" viewBox="0 0 100 100" fill="none" xmlns="http://www.w3.org/2000/svg">
<path d="M32.9217 16.069C34.3452 14.6437 36.6548 14.6437 38.0783 16.069L40.2389 18.2324C41.0012 18.9957 42.0623 19.382 43.1367 19.2874L46.182 19.0194C48.1885 18.8428 49.9577 20.3278 50.1322 22.335L50.3972 25.3815C50.4906 26.4563 51.0552 27.4345 51.939 28.0529L54.4441 29.8056C56.0946 30.9604 56.4957 33.2355 55.3396 34.8854L53.5848 37.3895C52.9658 38.2729 52.7697 39.3853 53.0494 40.4272L53.842 43.3806C54.3643 45.3265 53.2096 47.3272 51.2637 47.8477L48.3104 48.6377C47.2685 48.9165 46.4035 49.6425 45.9481 50.6205L44.6575 53.3926C43.8072 55.2191 41.637 56.0092 39.8119 55.1568L37.0419 53.8631C36.0646 53.4066 34.9354 53.4066 33.9581 53.8631L31.1881 55.1568C29.363 56.0092 27.1928 55.2191 26.3425 53.3926L25.0518 50.6205C24.5965 49.6425 23.7315 48.9165 22.6896 48.6377L19.7363 47.8477C17.7904 47.3272 16.6357 45.3265 17.1579 43.3806L17.9506 40.4272C18.2303 39.3853 18.0342 38.2729 17.4152 37.3895L15.6604 34.8854C14.5043 33.2355 14.9054 30.9604 16.5559 29.8056L19.061 28.0529C19.9448 27.4345 20.5094 26.4563 20.6028 25.3815L20.8678 22.335C21.0423 20.3278 22.8115 18.8428 24.818 19.0194L27.8633 19.2874C28.9377 19.382 29.9988 18.9957 30.7611 18.2324L32.9217 16.069Z" fill="#E8F2FC"/>
<path d="M59.3155 40.5526C59.3155 45.6264 55.2023 49.7396 50.1285 49.7396C45.0547 49.7396 40.9415 45.6264 40.9415 40.5526C40.9415 35.4788 45.0547 31.3656 50.1285 31.3656C55.2023 31.3656 59.3155 35.4788 59.3155 40.5526Z" fill="#0967D2"/>
<path fill-rule="evenodd" clip-rule="evenodd" d="M30.3563 70.885C32.6227 61.0955 40.6158 51.4409 50.1285 51.4409C58.1106 51.4409 65.0228 58.2386 68.3795 66.2098C64.8936 68.2592 62.1408 72.1549 60.8308 76.2797H35.1571C32.1504 76.2797 29.6781 73.8143 30.3563 70.885Z" fill="#0967D2"/>
<path d="M79.8548 58.6482C79.8548 61.877 77.2373 64.4945 74.0085 64.4945C70.7797 64.4945 68.1622 61.877 68.1622 58.6482C68.1622 55.4194 70.7797 52.8019 74.0085 52.8019C77.2373 52.8019 79.8548 55.4194 79.8548 58.6482Z" fill="#0967D2"/>
<path d="M74.0085 65.5771C67.955 65.5771 62.8684 71.721 61.4262 77.9507C60.9946 79.8147 62.5679 81.3837 64.4812 81.3837H83.5357C85.4491 81.3837 87.0224 79.8147 86.5908 77.9507C85.1485 71.721 80.062 65.5771 74.0085 65.5771Z" fill="#0967D2"/>
<path fill-rule="evenodd" clip-rule="evenodd" d="M35.6024 54.1016C36.2001 54.8265 36.0969 55.8988 35.3719 56.4965L26.4444 63.8563C25.7194 64.454 24.6472 64.3508 24.0495 63.6258C23.4518 62.9008 23.555 61.8285 24.28 61.2308L33.2075 53.871C33.9325 53.2734 35.0047 53.3766 35.6024 54.1016Z" fill="#E8B479"/>
<path fill-rule="evenodd" clip-rule="evenodd" d="M50.1286 57.2253C58.7729 57.2253 65.7805 50.2177 65.7805 41.5734C65.7805 32.9291 58.7729 25.9215 50.1286 25.9215C41.4843 25.9215 34.4767 32.9291 34.4767 41.5734C34.4767 50.2177 41.4843 57.2253 50.1286 57.2253ZM50.1286 64.0305C62.5313 64.0305 72.5856 53.9761 72.5856 41.5734C72.5856 29.1707 62.5313 19.1163 50.1286 19.1163C37.7259 19.1163 27.6715 29.1707 27.6715 41.5734C27.6715 53.9761 37.7259 64.0305 50.1286 64.0305Z" fill="#D27409"/>
<path fill-rule="evenodd" clip-rule="evenodd" d="M30.4255 58.2626C31.9197 60.0751 31.6617 62.7557 29.8492 64.2499L20.9218 71.6097C19.1093 73.1039 16.4287 72.8459 14.9345 71.0334C13.4403 69.221 13.6983 66.5404 15.5108 65.0461L24.4382 57.6863C26.2507 56.1921 28.9313 56.4501 30.4255 58.2626Z" fill="#D27409"/>
</svg>
