<svg width="101" height="100" viewBox="0 0 101 100" fill="none" xmlns="http://www.w3.org/2000/svg">
<path d="M33.5882 16.069C35.0117 14.6437 37.3213 14.6437 38.7448 16.069L40.9054 18.2324C41.6677 18.9957 42.7288 19.382 43.8032 19.2874L46.8485 19.0194C48.855 18.8428 50.6242 20.3278 50.7987 22.335L51.0637 25.3815C51.1571 26.4563 51.7217 27.4345 52.6055 28.0529L55.1106 29.8056C56.7611 30.9604 57.1622 33.2355 56.0061 34.8854L54.2513 37.3895C53.6323 38.2729 53.4362 39.3853 53.7159 40.4272L54.5086 43.3806C55.0308 45.3265 53.8761 47.3272 51.9302 47.8477L48.9769 48.6377C47.935 48.9165 47.07 49.6425 46.6147 50.6205L45.324 53.3926C44.4737 55.2191 42.3035 56.0092 40.4784 55.1568L37.7084 53.8631C36.7311 53.4066 35.6019 53.4066 34.6246 53.8631L31.8546 55.1568C30.0295 56.0092 27.8593 55.2191 27.009 53.3926L25.7184 50.6205C25.263 49.6425 24.398 48.9165 23.3561 48.6377L20.4028 47.8477C18.4569 47.3272 17.3022 45.3265 17.8245 43.3806L18.6171 40.4272C18.8968 39.3853 18.7007 38.2729 18.0817 37.3895L16.3269 34.8854C15.1708 33.2355 15.5719 30.9604 17.2224 29.8056L19.7275 28.0529C20.6113 27.4345 21.1759 26.4563 21.2693 25.3815L21.5343 22.335C21.7088 20.3278 23.478 18.8428 25.4845 19.0194L28.5298 19.2874C29.6042 19.382 30.6653 18.9957 31.4276 18.2324L33.5882 16.069Z" fill="#E8F2FC"/>
<ellipse cx="26.3003" cy="37.9125" rx="4.45655" ry="4.45655" fill="#D27409"/>
<path d="M26.6037 44.5974C21.9717 44.5974 18.0782 48.9924 16.9641 53.6652C16.6239 55.092 17.8331 56.2958 19.3 56.2958H32.9012C33.561 56.2958 34.2229 56.1221 34.7403 55.7125C35.1668 55.3748 35.3331 55.1272 35.5844 54.6246C35.9558 53.6961 35.6463 52.2039 35.3987 51.5506C33.7236 47.7716 30.4135 44.5974 26.6037 44.5974Z" fill="#D27409"/>
<path fill-rule="evenodd" clip-rule="evenodd" d="M71.1147 17.5305C72.1299 16.5152 73.7759 16.5152 74.7912 17.5305C87.5541 30.2933 87.5541 50.9861 74.7912 63.7489C62.0283 76.5118 41.3356 76.5118 28.5727 63.7489C27.5575 62.7337 27.5575 61.0877 28.5727 60.0725C29.5879 59.0572 31.2339 59.0572 32.2492 60.0725C42.9816 70.8049 60.3823 70.8049 71.1147 60.0725C81.8471 49.34 81.8471 31.9394 71.1147 21.2069C70.0995 20.1917 70.0995 18.5457 71.1147 17.5305Z" fill="#0967D2"/>
<path d="M44.127 79.1357C44.127 76.8795 45.9559 75.0505 48.2121 75.0505H55.2683C57.5245 75.0505 59.3535 76.8795 59.3535 79.1357C59.3535 81.3919 57.5245 83.2209 55.2683 83.2209H48.2121C45.9559 83.2209 44.127 81.3919 44.127 79.1357Z" fill="#0967D2"/>
<path fill-rule="evenodd" clip-rule="evenodd" d="M51.5545 64.7793C64.8864 64.7793 75.6941 53.9716 75.6941 40.6397C75.6941 27.3077 64.8864 16.5 51.5545 16.5C40.8471 16.5 31.7679 23.4713 28.6082 33.1226C30.4233 33.9004 31.6948 35.7032 31.6948 37.8029C31.6948 40.3046 29.8899 42.3847 27.5112 42.8121C27.5439 43.1781 27.5847 43.5418 27.6335 43.9029C31.314 44.3895 34.4862 47.4316 36.2987 51.1031C37.5263 53.5898 36.1493 55.9708 33.8287 57.0264C38.2385 61.7942 44.5479 64.7793 51.5545 64.7793Z" fill="#0967D2"/>
</svg>
