<svg width="44" height="44" viewBox="0 0 44 44" fill="none" xmlns="http://www.w3.org/2000/svg">
<rect x="0.25" y="0.25" width="43.5" height="43.5" rx="7.75" fill="#D27409"/>
<rect x="0.25" y="0.25" width="43.5" height="43.5" rx="7.75" stroke="#E09743" stroke-width="0.5"/>
<path d="M13 21L13.1529 24.2269C13.3171 27.6686 13.3993 29.3894 14.5588 30.4447C15.7184 31.5 17.5272 31.5 21.1446 31.5H22.8554C26.4728 31.5 28.2816 31.5 29.4412 30.4447C30.6007 29.3894 30.6829 27.6686 30.8471 24.2269L31 21" stroke="white" stroke-width="1.5" stroke-linecap="round" stroke-linejoin="round"/>
<path d="M12.8472 20.4431C14.5465 23.6744 18.3792 25 22 25C25.6208 25 29.4535 23.6744 31.1528 20.4431C31.964 18.9006 31.3498 16 29.352 16H14.648C12.6502 16 12.036 18.9006 12.8472 20.4431Z" stroke="white" stroke-width="1.5"/>
<path d="M22 21H22.009" stroke="white" stroke-width="2" stroke-linecap="round" stroke-linejoin="round"/>
<path d="M26 16L25.9117 15.6909C25.4717 14.1509 25.2517 13.3809 24.7279 12.9404C24.2041 12.5 23.5084 12.5 22.117 12.5H21.883C20.4916 12.5 19.7959 12.5 19.2721 12.9404C18.7483 13.3809 18.5283 14.1509 18.0883 15.6909L18 16" stroke="white" stroke-width="1.5"/>
</svg>
