<svg width="44" height="44" viewBox="0 0 44 44" fill="none" xmlns="http://www.w3.org/2000/svg">
<rect x="0.25" y="0.25" width="43.5" height="43.5" rx="7.75" fill="#D2BD09"/>
<rect x="0.25" y="0.25" width="43.5" height="43.5" rx="7.75" stroke="#E0D044" stroke-width="0.5"/>
<path d="M22 28C20.6675 28.6224 18.9171 29 17 29C15.9341 29 14.9197 28.8833 14 28.6726C13.4088 28.5372 13.1132 28.4695 12.759 28.1892C12.557 28.0294 12.3048 27.7129 12.1941 27.4803C12 27.0725 12 26.677 12 25.886L12 15.114C12 14.1291 13.04 13.4527 14 13.6726C14.9197 13.8833 15.9341 14 17 14C18.9171 14 20.6675 13.6224 22 13C23.3325 12.3776 25.0829 12 27 12C28.0659 12 29.0803 12.1167 30 12.3274C30.5912 12.4628 30.8868 12.5305 31.241 12.8108C31.443 12.9706 31.6952 13.2871 31.8059 13.5197C32 13.9275 32 14.323 32 15.114V25.886C32 26.8709 30.96 27.5473 30 27.3274C29.0803 27.1167 28.0659 27 27 27C25.0829 27 23.3325 27.3776 22 28Z" stroke="white" stroke-width="1.5"/>
<path d="M12 31C13.3325 31.6224 15.0829 32 17 32C18.9171 32 20.6675 31.6224 22 31C23.3325 30.3776 25.0829 30 27 30C28.9171 30 30.6675 30.3776 32 31" stroke="white" stroke-width="1.5" stroke-linecap="round"/>
<path d="M24.5 20.5C24.5 21.8807 23.3807 23 22 23C20.6193 23 19.5 21.8807 19.5 20.5C19.5 19.1193 20.6193 18 22 18C23.3807 18 24.5 19.1193 24.5 20.5Z" stroke="white" stroke-width="1.5"/>
<path d="M15.5 21.5L15.5 21.509" stroke="white" stroke-width="2" stroke-linecap="round" stroke-linejoin="round"/>
<path d="M28.5 19.4922L28.5 19.5012" stroke="white" stroke-width="2" stroke-linecap="round" stroke-linejoin="round"/>
</svg>
