<svg width="101" height="100" viewBox="0 0 101 100" fill="none" xmlns="http://www.w3.org/2000/svg">
<path d="M33.2549 16.069C34.6785 14.6437 36.988 14.6437 38.4116 16.069L40.5722 18.2324C41.3345 18.9957 42.3955 19.382 43.4699 19.2874L46.5153 19.0194C48.5217 18.8428 50.2909 20.3278 50.4655 22.335L50.7304 25.3815C50.8239 26.4563 51.3885 27.4345 52.2723 28.0529L54.7774 29.8056C56.4279 30.9604 56.8289 33.2355 55.6728 34.8854L53.9181 37.3895C53.299 38.2729 53.1029 39.3853 53.3826 40.4272L54.1753 43.3806C54.6976 45.3265 53.5428 47.3272 51.597 47.8477L48.6437 48.6377C47.6017 48.9165 46.7367 49.6425 46.2814 50.6205L44.9908 53.3926C44.1405 55.2191 41.9702 56.0092 40.1451 55.1568L37.3751 53.8631C36.3978 53.4066 35.2687 53.4066 34.2914 53.8631L31.5214 55.1568C29.6963 56.0092 27.5261 55.2191 26.6757 53.3926L25.3851 50.6205C24.9298 49.6425 24.0648 48.9165 23.0228 48.6377L20.0695 47.8477C18.1237 47.3272 16.9689 45.3265 17.4912 43.3806L18.2839 40.4272C18.5636 39.3853 18.3675 38.2729 17.7484 37.3895L15.9937 34.8854C14.8376 33.2355 15.2386 30.9604 16.8891 29.8056L19.3942 28.0529C20.278 27.4345 20.8426 26.4563 20.9361 25.3815L21.201 22.335C21.3756 20.3278 23.1448 18.8428 25.1512 19.0194L28.1966 19.2874C29.271 19.382 30.332 18.9957 31.0943 18.2324L33.2549 16.069Z" fill="#E8F2FC"/>
<ellipse cx="50.4371" cy="32.6418" rx="11.4158" ry="11.4158" fill="#0967D2"/>
<path fill-rule="evenodd" clip-rule="evenodd" d="M29.2979 61.4167C33.0495 63.0007 36.1833 66.573 38.0548 70.6611C39.1539 73.0619 38.382 75.36 36.6555 76.8848C37.3081 76.9846 37.9778 77.0367 38.6586 77.0367H62.3358C63.0172 77.0367 63.6874 76.9845 64.3406 76.8845C62.6142 75.3597 61.8425 73.0617 62.9415 70.6611C64.8128 66.5736 67.946 63.0017 71.6969 61.4173C67.1605 52.9154 59.3596 46.1717 50.4972 46.1717C41.6351 46.1717 33.8343 52.915 29.2979 61.4167Z" fill="#0967D2"/>
<path d="M81.8915 54.7969C81.8915 58.1594 79.1656 60.8853 75.803 60.8853C72.4405 60.8853 69.7146 58.1594 69.7146 54.7969C69.7146 51.4343 72.4405 48.7084 75.803 48.7084C79.1656 48.7084 81.8915 51.4343 81.8915 54.7969Z" fill="#D27409"/>
<path d="M75.804 62.0128C69.6769 62.0128 64.5011 68.0566 62.8361 74.3523C62.247 76.5797 64.1419 78.4742 66.4459 78.4742H85.1622C87.4662 78.4742 89.3611 76.5797 88.772 74.3523C87.107 68.0566 81.9311 62.0128 75.804 62.0128Z" fill="#D27409"/>
<path d="M31.1556 54.7969C31.1556 58.1594 28.4298 60.8853 25.0672 60.8853C21.7046 60.8853 18.9788 58.1594 18.9788 54.7969C18.9788 51.4343 21.7046 48.7084 25.0672 48.7084C28.4298 48.7084 31.1556 51.4343 31.1556 54.7969Z" fill="#D27409"/>
<path d="M25.0682 62.0128C18.9411 62.0128 13.7652 68.0566 12.1002 74.3523C11.5111 76.5797 13.4061 78.4742 15.71 78.4742H34.4263C36.7303 78.4742 38.6252 76.5797 38.0362 74.3523C36.3711 68.0566 31.1953 62.0128 25.0682 62.0128Z" fill="#D27409"/>
</svg>
